<?xml version="1.0" encoding="UTF-8" standalone="no"?>
<!-- Generator: Adobe Illustrator 23.0.3, SVG Export Plug-In . SVG Version: 6.00 Build 0)  -->

<svg
   xmlns:dc="http://purl.org/dc/elements/1.1/"
   xmlns:cc="http://creativecommons.org/ns#"
   xmlns:rdf="http://www.w3.org/1999/02/22-rdf-syntax-ns#"
   xmlns:svg="http://www.w3.org/2000/svg"
   xmlns="http://www.w3.org/2000/svg"
   xmlns:sodipodi="http://sodipodi.sourceforge.net/DTD/sodipodi-0.dtd"
   xmlns:inkscape="http://www.inkscape.org/namespaces/inkscape"
   version="1.1"
   id="Layer_1"
   x="0px"
   y="0px"
   viewBox="0 0 500 500"
   style="enable-background:new 0 0 500 500;"
   xml:space="preserve"
   sodipodi:docname="logo.svg"
   inkscape:version="0.92.4 (5da689c313, 2019-01-14)"><metadata
   id="metadata145"><rdf:RDF><cc:Work
       rdf:about=""><dc:format>image/svg+xml</dc:format><dc:type
         rdf:resource="http://purl.org/dc/dcmitype/StillImage" /><dc:title></dc:title></cc:Work></rdf:RDF></metadata><defs
   id="defs143" /><sodipodi:namedview
   pagecolor="#ffffff"
   bordercolor="#666666"
   borderopacity="1"
   objecttolerance="10"
   gridtolerance="10"
   guidetolerance="10"
   inkscape:pageopacity="0"
   inkscape:pageshadow="2"
   inkscape:window-width="2560"
   inkscape:window-height="1017"
   id="namedview141"
   showgrid="false"
   inkscape:zoom="0.472"
   inkscape:cx="250"
   inkscape:cy="250"
   inkscape:window-x="1912"
   inkscape:window-y="-8"
   inkscape:window-maximized="1"
   inkscape:current-layer="Layer_1" />

<circle
   r="170.19618"
   cy="250.2718"
   cx="250.64825"
   id="path891"
   style="opacity:1;fill:#333333;fill-opacity:1;stroke:#ffcc00;stroke-width:10;stroke-miterlimit:4;stroke-dasharray:none;stroke-opacity:1" /><path
   inkscape:connector-curvature="0"
   id="path827"
   style="font-style:normal;font-variant:normal;font-weight:bold;font-stretch:normal;font-size:143.97180176px;line-height:1.25;font-family:'Courier New';-inkscape-font-specification:'Courier New Bold';letter-spacing:0px;word-spacing:0px;fill:#ffffff;fill-opacity:1;stroke:none;stroke-width:3.28569007"
   d="m 170.30286,207.85302 -15.46585,18.61036 q -2.11773,2.56694 -3.4012,3.33703 -1.28348,0.77008 -3.01616,0.77008 -2.75947,0 -4.74886,-1.92521 -1.9252,-1.98938 -1.9252,-4.81302 0,-2.24608 2.88781,-5.77563 l 25.66946,-30.99587 25.86197,30.99587 q 1.86104,2.24608 2.37443,3.4012 0.57756,1.15513 0.57756,2.4386 0,2.75947 -1.98938,4.74885 -1.92522,1.92521 -4.6205,1.92521 -1.79687,0 -3.08034,-0.77008 -1.28348,-0.77009 -3.4012,-3.27286 z" /><path
   inkscape:connector-curvature="0"
   id="path829"
   style="font-style:normal;font-variant:normal;font-weight:bold;font-stretch:normal;font-size:143.97180176px;line-height:1.25;font-family:'Courier New';-inkscape-font-specification:'Courier New Bold';letter-spacing:0px;word-spacing:0px;fill:#ffffff;fill-opacity:1;stroke:none;stroke-width:3.28569007"
   d="m 285.68706,313.48283 h -72.25952 q -4.74885,0 -6.73823,-1.79686 -2.05356,-1.79687 -2.05356,-4.74885 0,-2.95199 2.05356,-4.81302 1.98938,-1.79687 6.73823,-1.79687 h 72.25952 q 4.68467,0 6.67405,1.79687 2.05356,1.86103 2.05356,4.81302 0,2.88781 -1.98938,4.68468 -1.98939,1.86103 -6.73823,1.86103 z" /><path
   inkscape:connector-curvature="0"
   id="path831"
   style="font-style:normal;font-variant:normal;font-weight:bold;font-stretch:normal;font-size:143.97180176px;line-height:1.25;font-family:'Courier New';-inkscape-font-specification:'Courier New Bold';letter-spacing:0px;word-spacing:0px;fill:#ffffff;fill-opacity:1;stroke:none;stroke-width:3.28569007"
   d="m 352.87686,227.23347 q 2.82363,0 4.74885,1.9252 1.92521,1.92521 1.92521,4.62051 0,2.75946 -2.88782,6.16067 -4.36381,5.06971 -7.31579,7.18744 -4.36381,3.20868 -9.30518,3.20868 -3.72207,0 -7.37997,-1.86103 -3.6579,-1.86104 -9.17683,-7.0591 -5.45476,-5.26224 -6.99492,-5.26224 -0.77009,0 -1.476,0.51339 -1.41182,0.89843 -4.6205,4.42798 -3.14451,3.52955 -4.42798,4.29963 -1.28348,0.70591 -2.56695,0.70591 -2.69529,0 -4.74885,-1.98938 -1.98938,-1.98939 -1.98938,-4.62051 0,-3.91459 6.67406,-10.2036 6.67406,-6.28902 13.09142,-6.28902 3.52955,0 7.25162,1.86103 3.72207,1.79687 9.81857,7.82919 3.14451,3.14451 4.6205,3.97877 0.9626,0.51339 1.73269,0.51339 0.89843,0 1.60433,-0.51339 1.60435,-1.09096 5.1339,-5.26224 2.24608,-2.69529 3.46537,-3.40121 1.28348,-0.77007 2.82365,-0.77007 z" /></svg>